<svg width="67" height="24" viewBox="0 0 67 24" fill="none" xmlns="http://www.w3.org/2000/svg">
<g clip-path="url(#clip0)">
<path d="M11.6123 1.36613C8.92591 1.45573 6.38233 2.59734 4.52984 4.54486C2.67735 6.49238 1.66432 9.08985 1.70913 11.7773C1.75393 14.4648 2.85298 17.0271 4.76935 18.9118C6.68573 20.7965 9.26595 21.8526 11.9538 21.8526C14.6417 21.8526 17.2219 20.7965 19.1383 18.9118C21.0546 17.0271 22.1537 14.4648 22.1985 11.7773C22.2433 9.08985 21.2303 6.49238 19.3778 4.54486C17.5253 2.59734 14.9817 1.45573 12.2953 1.36613H11.6123ZM25.9568 1.36613C23.2704 1.45573 20.7269 2.59734 18.8744 4.54486C17.0219 6.49238 16.0089 9.08985 16.0537 11.7773C16.0985 14.4648 17.1975 17.0271 19.1139 18.9118C21.0303 20.7965 23.6105 21.8526 26.2983 21.8526C28.9862 21.8526 31.5664 20.7965 33.4828 18.9118C35.3992 17.0271 36.4982 14.4648 36.543 11.7773C36.5878 9.08985 35.5748 6.49238 33.7223 4.54486C31.8698 2.59734 29.3262 1.45573 26.6399 1.36613H25.9568ZM40.3013 1.36613C37.615 1.45573 35.0714 2.59734 33.2189 4.54486C31.3664 6.49238 30.3534 9.08985 30.3982 11.7773C30.443 14.4648 31.5421 17.0271 33.4584 18.9118C35.3748 20.7965 37.955 21.8526 40.6429 21.8526C43.3307 21.8526 45.9109 20.7965 47.8273 18.9118C49.7437 17.0271 50.8427 14.4648 50.8876 11.7773C50.9324 9.08985 49.9193 6.49238 48.0668 4.54486C46.2144 2.59734 43.6708 1.45573 40.9844 1.36613H40.3013ZM54.6459 1.36613C51.9595 1.45573 49.4159 2.59734 47.5635 4.54486C45.711 6.49238 44.6979 9.08985 44.7427 11.7773C44.7875 14.4648 45.8866 17.0271 47.803 18.9118C49.7193 20.7965 52.2996 21.8526 54.9874 21.8526C57.6753 21.8526 60.2555 20.7965 62.1719 18.9118C64.0882 17.0271 65.1873 14.4648 65.2321 11.7773C65.2769 9.08985 64.2639 6.49238 62.4114 4.54486C60.5589 2.59734 58.0153 1.45573 55.329 1.36613H54.6459Z" stroke="black" stroke-width="2.39076"/>
</g>
<defs>
<clipPath id="clip0">
<rect width="66.9412" height="23.2245" fill="white"/>
</clipPath>
</defs>
</svg>
